HIERARCHY
ROOT Hips
{
	OFFSET	0.00	0.00	0.00
	CHANNELS 6 Xposition Yposition Zposition Zrotation Xrotation Yrotation
	JOINT Spine
	{
		OFFSET	 0.00	0.01	 0.00
		CHANNELS 3 Zrotation Xrotation Yrotation
		JOINT Spine1
		{
			OFFSET	 0.00	 2.45913012437421	 0.00
			CHANNELS 3 Zrotation Xrotation Yrotation
            JOINT Neck
            {
                OFFSET	 0.00	 2.48462964506057	 0.00
                CHANNELS 3 Zrotation Xrotation Yrotation
                JOINT Head
                {
                    OFFSET	 0.00	 0.927524780924562	 0.00
                    CHANNELS 3 Zrotation Xrotation Yrotation
                    End Site 
                    {
                        OFFSET	 0.00	 1.14999962169752	 0.00
                    }
                }
            }
			JOINT LeftShoulder
			{
				OFFSET	 0.00	 2.48462964506057	 0.00
				CHANNELS 3 Zrotation Xrotation Yrotation
				JOINT LeftUpArm
				{
					OFFSET	 0.00	 1.24881979654096	 0.00
					CHANNELS 3 Zrotation Xrotation Yrotation
					JOINT LeftForeArm
					{
						OFFSET	 0.00	2.59758046908119	 0.00
						CHANNELS 3 Zrotation Xrotation Yrotation
						JOINT LeftHand
						{
							OFFSET	 0.00	2.45542024364365	 0.00
							CHANNELS 3 Zrotation Xrotation Yrotation
							JOINT LeftHandThumb 
							{
								OFFSET	 0.00	0.00	 0.00
								CHANNELS 3 Zrotation Xrotation Yrotation
								End Site
								{
									OFFSET	 0.00	0.00	1.00000003353624
								}
							}
							JOINT L_Wrist_End 
							{
								OFFSET	 0.00	0.99999967115358	 0.00
								CHANNELS 3 Zrotation Xrotation Yrotation
								End Site 
								{
									OFFSET	 0.00	 0.00	 0.00
								}
							}
						}
					}
				}
			}
			JOINT RightShoulder
			{
				OFFSET	 0.00	 2.48462964506057	 0.00
				CHANNELS 3 Zrotation Xrotation Yrotation
				JOINT RightUpArm
				{
					OFFSET	 0.00	 1.24881979654096	 0.00
					CHANNELS 3 Zrotation Xrotation Yrotation
					JOINT RightForeArm
					{
						OFFSET	 0.00	2.59758046908119	 0.00
						CHANNELS 3 Zrotation Xrotation Yrotation
						JOINT RightHand
						{
							OFFSET	 0.00	2.45542024364365	 0.00
							CHANNELS 3 Zrotation Xrotation Yrotation
							JOINT RightHandThumb 
							{
								OFFSET	 0.00	0.00	 0.00
								CHANNELS 3 Zrotation Xrotation Yrotation
								End Site
								{
									OFFSET	 0.00	0.00	1.00000003353624
								}
							}
							JOINT R_Wrist_End 
							{
								OFFSET	 0.00	0.99999967115358	 0.00
								CHANNELS 3 Zrotation Xrotation Yrotation
								End Site 
								{
									OFFSET	 0.00	 0.00	 0.00
								}
							}
						}
					}
				}
			}
		}
	}
	JOINT LeftUpLeg
	{
		OFFSET	 1.2719394002717	 0.00	 0.00
		CHANNELS 3 Zrotation Xrotation Yrotation
		JOINT LeftLowLeg
		{
			OFFSET	 0.00	-4.3429100912261	 0.00
			CHANNELS 3 Zrotation Xrotation Yrotation
			JOINT LeftFoot
			{
				OFFSET	 0.00	-4.48767017425826	 0.00
				CHANNELS 3 Zrotation Xrotation Yrotation
				JOINT LeftToeBase
                {
                    OFFSET	 0.00	0.00	 1.51507020887566
                    CHANNELS 3 Zrotation Xrotation Yrotation
                    End Site 
                    {
                        OFFSET	 0.00	0.00	 0.75000010571191
                    }
                }
			}
		}
	}
	JOINT RightUpLeg
	{
		OFFSET	 -1.2719393604653	 0.00	 0.00
		CHANNELS 3 Zrotation Xrotation Yrotation
		JOINT RightLowLeg
		{
			OFFSET	 0.00	-4.3429100912261	 0.00
			CHANNELS 3 Zrotation Xrotation Yrotation
			JOINT RightFoot
			{
				OFFSET	 0.00	-4.48767017425826	 0.00
				CHANNELS 3 Zrotation Xrotation Yrotation
				JOINT RightToeBase
                {
                    OFFSET	 0.00	0.00	 1.51507020887566
                    CHANNELS 3 Zrotation Xrotation Yrotation
                    End Site 
                    {
                        OFFSET	 0.00	0.00	 0.749999965609858
                    }
                }   
			}
		}
	}
}
MOTION 
Frames:	15 
Frame Time: 0.02 
 -1.2867599487304688 3.200350036621094 9.366669921875 -165.235 73.2654 164.576 6.79623 -27.9099 0.370758 -1.49697 9.84483 -0.224964 13.239 37.7475 -0.824539 -23.5786 -69.8749 -12.982 -120.174805 4.45458 10.134 -39.24 26.5693 21.4518 0.0 29.2323 0.0 17.2311 -5.82662 27.445 0.0 0.0 0.0 0.0 0.0 0.0 121.6297 -1.49575 -5.87216 38.6555 16.053 -379.956 0.0 27.5838 0.0 -8.47029 -1.92274 -5.1496 0.0 0.0 0.0 0.0 0.0 0.0 0.812876 -12.6145 -23.7471 0.0 4.71351 0.0 0.114674 -2.8855 21.3231 0.0 -11.04513 0.0 7.82802 -12.2668 391.471 0.0 5.38216 0.0 4.80962 2.7917995 -28.0534 0.0 -18.13893 0.0 
  -1.2852799987792969 3.2068499755859374 9.367880249023438 -165.025 73.3419 164.48 6.74682 -27.8449 0.357284 -1.44877 9.78683 -0.200101 13.1826 37.9282 -0.811359 -23.7844 -69.8189 -13.3514 -120.127396 4.67792 10.3291 -39.2837 27.8517 20.421 0.0 30.6559 0.0 17.4471 -5.5866 26.6234 0.0 0.0 0.0 0.0 0.0 0.0 121.5461 -1.38467 -5.9702 38.4958 16.7078 -380.069 0.0 28.345 0.0 -8.88379 -1.70772 -5.15375 0.0 0.0 0.0 0.0 0.0 0.0 0.806826 -12.6174 -23.786 0.0 4.78033 0.0 0.0862593 -2.8549004 21.2386 0.0 -11.02954 0.0 7.84238 -12.2415 391.361 0.0 5.43289 0.0 4.86828 2.8008003 -28.0335 0.0 -18.14624 0.0 
  -1.284219970703125 3.212659912109375 9.3685498046875 -164.863 73.3746 164.387 6.74799 -27.8148 0.404038 -1.45858 9.77243 -0.152926 13.1679 38.0139 -0.848101 -23.8883 -69.7546 -13.5722 -120.1005 4.84232 10.4522 -39.3087 28.8694 19.5077 0.0 32.2773 0.0 17.5709 -5.38452 26.8806 0.0 0.0 0.0 0.0 0.0 0.0 121.4308 -1.2794 -5.96348 38.5094 17.1937 -380.245 0.0 28.937 0.0 -9.28565 -1.30905 -5.27562 0.0 0.0 0.0 0.0 0.0 0.0 0.817844 -12.6462 -23.8153 0.0 4.83255 0.0 0.108235 -2.8157997 21.1934 0.0 -11.08612 0.0 7.87069 -12.2537 391.323 0.0 5.47787 0.0 4.86997 2.8330002 -28.0648 0.0 -18.16422 0.0 
  -1.2828199768066406 3.217489929199219 9.36947021484375 -164.732 73.4684 164.308 6.75556 -27.7521 0.458984 -1.51284 9.81927 -0.107214 13.251 38.0455 -0.986978 -23.9866 -69.7258 -13.6525 -120.0681 4.97737 10.5313 -39.3393 29.6225 18.9982 0.0 33.9097 0.0 17.9276 -5.11164 26.1026 0.0 0.0 0.0 0.0 0.0 0.0 121.3225 -1.20489 -5.94325 38.5467 17.5458 -380.508 0.0 29.5364 0.0 -9.38377 -1.20729 -4.73744 0.0 0.0 0.0 0.0 0.0 0.0 0.807603 -12.5995 -23.8539 0.0 4.85676 0.0 -0.0771268 -2.8826008 21.0998 0.0 -10.95051 0.0 7.86616 -12.1951 391.262 0.0 5.49832 0.0 4.87704 2.8647003 -28.0642 0.0 -18.18087 0.0 
  -1.2821600341796875 3.2206600952148436 9.3702197265625 -164.682 73.5075 164.262 6.79136 -27.7511 0.538136 -1.57722 9.8972 -0.0527951 13.271 38.0292 -1.05463 -24.1048 -69.7232 -13.7493 -119.9975 5.01507 10.5742 -39.4188 30.1569 18.6916 0.0 35.5868 0.0 18.2203 -4.87383 25.7906 0.0 0.0 0.0 0.0 0.0 0.0 121.2331 -1.17103 -5.92851 38.6357 17.8526 -380.828 0.0 29.9822 0.0 -9.42589 -1.10146 -4.55259 0.0 0.0 0.0 0.0 0.0 0.0 0.808745 -12.5759 -23.9152 0.0 4.853 0.0 -0.0459503 -2.8220997 21.1505 0.0 -10.994989 0.0 7.86844 -12.1847 391.233 0.0 5.52016 0.0 4.89283 2.8797998 -28.039 0.0 -18.18388 0.0 
  -1.2824400329589845 3.2232101440429686 9.371079711914062 -164.647 73.571 164.202 6.79053 -27.7165 0.588144 -1.57903 9.97648 0.00375031 13.0969 38.0512 -0.892027 -24.2955 -69.7617 -14.0936 -119.9339 4.97757 10.5925 -39.5582 30.4781 18.5264 0.0 37.1537 0.0 18.2411 -4.53886 24.6609 0.0 0.0 0.0 0.0 0.0 0.0 121.1539 -1.12762 -5.99191 38.7229 18.0633 -380.992 0.0 30.3252 0.0 -9.17722 -1.0816 -4.49554 0.0 0.0 0.0 0.0 0.0 0.0 0.812259 -12.5231 -23.8865 0.0 4.84883 0.0 -0.0903284 -2.7996998 21.1261 0.0 -11.02527 0.0 7.86867 -12.1439 391.226 0.0 5.52979 0.0 4.90773 2.9083996 -28.0182 0.0 -18.16323 0.0 
  -1.282830047607422 3.225220031738281 9.371630249023438 -164.607 73.6528 164.117 6.8119 -27.6345 0.656794 -1.59436 10.0208 0.0532194 13.1697 37.9795 -1.09322 -24.5178 -69.7113 -14.2251 -119.882 4.894 10.5897 -39.7351 30.5179 18.3682 0.0 38.6533 0.0 18.316 -4.23117 24.1981 0.0 0.0 0.0 0.0 0.0 0.0 121.1484 -1.07594 -6.09298 38.7314 18.1062 -381.238 0.0 30.6439 0.0 -9.0086 -1.11709 -4.75617 0.0 0.0 0.0 0.0 0.0 0.0 0.818495 -12.4452 -23.8135 0.0 4.84612 0.0 -0.05035 -2.7527008 21.1122 0.0 -11.07435 0.0 7.87178 -12.0878 391.212 0.0 5.55271 0.0 4.90068 2.9347 -27.9665 0.0 -18.17186 0.0 
  -1.283780059814453 3.226709899902344 9.372119750976562 -164.59 73.696 164.026 6.83167 -27.5922 0.721722 -1.57223 10.1122 0.109353 13.0841 37.9136 -1.11439 -24.8051 -69.7202 -14.629 -119.848404 4.78371 10.5546 -39.9511 30.3405 18.2731 0.0 39.9397 0.0 18.3083 -3.78634 23.9101 0.0 0.0 0.0 0.0 0.0 0.0 121.203 -1.02714 -6.1504 38.6645 18.0344 -381.585 0.0 30.8624 0.0 -8.73173 -1.21537 -4.85792 0.0 0.0 0.0 0.0 0.0 0.0 0.840125 -12.4095 -23.618 0.0 4.85772 0.0 -0.224864 -2.8656998 20.922 0.0 -10.93834 0.0 7.89265 -12.0722 391.209 0.0 5.58465 0.0 4.89106 2.9590998 -27.905 0.0 -18.16997 0.0 
  -1.285229949951172 3.2276400756835937 9.37239013671875 -164.638 73.7178 163.961 6.84609 -27.5645 0.797892 -1.54308 10.2067 0.185382 12.9315 37.8967 -1.02143 -25.0641 -69.7965 -15.2115 -119.8403 4.64947 10.5191 -40.1548 29.9935 18.3711 0.0 40.9615 0.0 18.3622 -3.45545 23.4265 0.0 0.0 0.0 0.0 0.0 0.0 121.2601 -1.02221 -6.19606 38.6675 17.8481 -381.833 0.0 30.9415 0.0 -8.17204 -1.38106 -4.41705 0.0 0.0 0.0 0.0 0.0 0.0 0.861111 -12.3803 -23.4553 0.0 4.85983 0.0 -0.212409 -2.8668003 20.8644 0.0 -10.96171 0.0 7.91908 -12.0878 391.28 0.0 5.64014 0.0 4.91074 2.9624996 -27.856 0.0 -18.18863 0.0 
  -1.2873899841308594 3.227349853515625 9.372479858398437 -164.636 73.7264 163.861 6.87256 -27.5678 0.874462 -1.53909 10.346 0.25397 13.1054 37.7915 -1.32839 -25.1431 -69.7987 -15.4433 -119.8351 4.54357 10.4861 -40.2877 29.4468 18.5822 0.0 41.6998 0.0 18.2432 -3.22685 22.5376 0.0 0.0 0.0 0.0 0.0 0.0 121.3109 -1.03836 -6.23915 38.747 17.5748 -382.222 0.0 30.7655 0.0 -8.0865 -1.20233 -4.51663 0.0 0.0 0.0 0.0 0.0 0.0 0.900682 -12.358 -23.324 0.0 4.86883 0.0 -0.265619 -2.9153996 20.7949 0.0 -10.9950905 0.0 7.96681 -12.0975 391.36 0.0 5.6825 0.0 4.87773 2.9973001 -27.8594 0.0 -18.20183 0.0 
  -1.2891700744628907 3.2275 9.372069702148437 -164.736 73.733 163.842 6.91927 -27.5461 0.979968 -1.61805 10.4801 0.326826 13.5206 37.6272 -1.90428 -24.9793 -69.7534 -15.3975 -119.8306 4.46375 10.4219 -40.3648 28.7114 18.9722 0.0 42.1275 0.0 17.9828 -3.08529 21.6324 0.0 0.0 0.0 0.0 0.0 0.0 121.3897 -1.07508 -6.27135 38.8681 17.2546 -382.742 0.0 30.4144 0.0 -8.14679 -1.22441 -4.5238 0.0 0.0 0.0 0.0 0.0 0.0 0.903596 -12.3562 -23.2588 0.0 4.90862 0.0 -0.214678 -2.9291992 20.8543 0.0 -11.05234 0.0 7.99221 -12.1285 391.454 0.0 5.74505 0.0 4.84797 2.9940004 -27.8436 0.0 -18.19605 0.0 
  -1.2905900573730469 3.228789978027344 9.3714501953125 -164.864 73.7432 163.829 6.99188 -27.5031 1.11216 -1.74131 10.6404 0.401482 14.2296 37.3755 -2.86411 -24.7841 -69.7059 -15.2502 -119.8539 4.41276 10.3962 -40.3242 27.8822 19.4694 0.0 42.1848 0.0 18.1792 -3.12151 21.4858 0.0 0.0 0.0 0.0 0.0 0.0 121.5181 -1.10348 -6.24813 38.9677 16.8144 -383.099 0.0 29.9944 0.0 -7.86779 -1.60174 -4.30944 0.0 0.0 0.0 0.0 0.0 0.0 0.892816 -12.3709 -23.1793 0.0 4.97163 0.0 -0.421894 -3.1147003 20.833 0.0 -10.904261 0.0 8.01099 -12.1753 391.527 0.0 5.82645 0.0 4.86192 2.9561005 -27.7565 0.0 -18.19533 0.0 
  -1.2911700439453124 3.2298098754882814 9.370830078125 -164.94 73.7576 163.776 7.07847 -27.4469 1.23287 -1.8503 10.8257 0.451705 15.088 37.1176 -4.02482 -24.6036 -69.6399 -15.0998 -119.9312 4.35822 10.3951 -40.1932 26.9913 20.0337 0.0 41.808 0.0 17.8967 -3.12237 21.4719 0.0 0.0 0.0 0.0 0.0 0.0 121.611404 -1.15804 -6.19724 39.152 16.3835 -383.338 0.0 29.2379 0.0 -7.44367 -1.53609 -4.42954 0.0 0.0 0.0 0.0 0.0 0.0 0.872625 -12.3938 -23.1233 0.0 5.08204 0.0 -0.3293 -3.154499 20.9358 0.0 -10.94903 0.0 8.03063 -12.2105 391.568 0.0 5.90427 0.0 4.89108 2.9129 -27.6395 0.0 -18.18953 0.0 
  -1.2919999694824218 3.2296600341796875 9.370360107421876 -164.912 73.7915 163.63 7.19168 -27.3832 1.35251 -1.95036 11.0717 0.479566 16.031 36.8016 -5.33387 -24.3895 -69.5123 -14.9234 -120.0064 4.29944 10.3704 -40.0786 26.0676 20.7799 0.0 40.939 0.0 17.4909 -3.25142 20.9101 0.0 0.0 0.0 0.0 0.0 0.0 121.6975 -1.20414 -6.11172 39.3334 15.8477 -383.634 0.0 28.4513 0.0 -7.21115 -1.9161 -4.77369 0.0 0.0 0.0 0.0 0.0 0.0 0.87427 -12.3826 -23.1038 0.0 5.18511 0.0 -0.312993 -3.2402 21.047 0.0 -10.933411 0.0 8.0729 -12.2122 391.552 0.0 5.97489 0.0 4.87625 2.9228 -27.513 0.0 -18.20084 0.0 
  -1.2926600646972657 3.23052001953125 9.369920043945312 -164.931 73.8487 163.469 7.34486 -27.2718 1.51494 -2.07144 11.3479 0.514203 17.252 36.3656 -7.06668 -24.3251 -69.3267 -14.6194 -120.0336 4.25931 10.3024 -40.0046 25.105 21.7392 0.0 39.5672 0.0 16.9221 -3.46338 21.1642 0.0 0.0 0.0 0.0 0.0 0.0 121.785 -1.22648 -6.05102 39.491 15.375 -383.97 0.0 27.426 0.0 -7.05088 -2.56857 -4.87687 0.0 0.0 0.0 0.0 0.0 0.0 0.878104 -12.3333 -22.9977 0.0 5.25002 0.0 -0.260202 -3.2875996 21.1483 0.0 -10.90222 0.0 8.1162 -12.2049 391.672 0.0 6.05994 0.0 4.8627 2.9357996 -27.4657 0.0 -18.23259 0.0 
